<svg width="100" height="123" viewBox="0 0 100 123" xmlns="http://www.w3.org/2000/svg" version="1.1" style="shape-rendering:geometricPrecision; text-rendering:geometricPrecision; image-rendering:optimizeQuality; fill-rule:evenodd; clip-rule:evenodd" xmlns:xlink="http://www.w3.org/1999/xlink">
<g><path style="opacity:1" fill="#31c8cf" d="M 143.5,26.5 C 127.857,25.2155 112.19,25.2155 96.5,26.5C 96.5,29.8333 96.5,33.1667 96.5,36.5C 95.5056,26.0131 95.1722,15.3464 95.5,4.5C 114.83,4.83559 130.83,12.1689 143.5,26.5 Z"/></g>
<g><path style="opacity:1" fill="#1cbcce" d="M 143.5,26.5 C 146.313,29.4459 148.646,32.7792 150.5,36.5C 136.829,36.3334 123.163,36.5001 109.5,37C 108.584,37.2784 107.918,37.7784 107.5,38.5C 103.833,37.8333 100.167,37.1667 96.5,36.5C 96.5,33.1667 96.5,29.8333 96.5,26.5C 112.19,25.2155 127.857,25.2155 143.5,26.5 Z"/></g>
<g><path style="opacity:0.999" fill="#7d35e8" d="M 150.5,36.5 C 171.688,40.9234 189.355,51.2567 203.5,67.5C 203.427,69.0269 204.094,70.0269 205.5,70.5C 207.543,71.5794 208.876,73.246 209.5,75.5C 209.427,77.0269 210.094,78.0269 211.5,78.5C 212.401,79.2905 213.068,80.2905 213.5,81.5C 205.695,82.8312 197.528,83.4979 189,83.5C 177.98,83.9498 167.146,83.9498 156.5,83.5C 156.5,82.1667 156.5,80.8333 156.5,79.5C 157.954,75.4261 158.621,71.0927 158.5,66.5C 158.497,63.6445 158.164,60.9779 157.5,58.5C 157.318,54.5109 156.318,50.8442 154.5,47.5C 153.452,43.7356 152.119,40.069 150.5,36.5 Z"/></g>
<g><path style="opacity:1" fill="#22afd1" d="M 150.5,36.5 C 152.119,40.069 153.452,43.7356 154.5,47.5C 143.5,48.1667 132.5,48.8333 121.5,49.5C 117.383,45.0398 112.716,41.3732 107.5,38.5C 107.918,37.7784 108.584,37.2784 109.5,37C 123.163,36.5001 136.829,36.3334 150.5,36.5 Z"/></g>
<g><path style="opacity:1" fill="#39a4d5" d="M 108.5,50.5 C 107.448,50.3505 106.448,50.5172 105.5,51C 98.9679,57.1975 92.8013,63.6975 87,70.5C 86.5172,71.448 86.3505,72.448 86.5,73.5C 83.7159,56.0383 91.0492,48.3716 108.5,50.5 Z"/></g>
<g><path style="opacity:1" fill="#26a4d2" d="M 154.5,47.5 C 156.318,50.8442 157.318,54.5109 157.5,58.5C 157.5,58.8333 157.5,59.1667 157.5,59.5C 146.779,58.8581 136.446,59.5247 126.5,61.5C 125.237,57.3915 123.571,53.3915 121.5,49.5C 132.5,48.8333 143.5,48.1667 154.5,47.5 Z"/></g>
<g><path style="opacity:0.999" fill="#4f79dc" d="M 115.5,54.5 C 121.187,59.4143 122.854,65.4143 120.5,72.5C 120.5,69.8333 120.5,67.1667 120.5,64.5C 119.954,62.6968 119.12,61.0302 118,59.5C 109.907,67.0884 102.407,75.0884 95.5,83.5C 93.9731,83.573 92.9731,82.9063 92.5,81.5C 91.2003,80.399 90.7003,79.0657 91,77.5C 98.7549,69.2404 106.922,61.5737 115.5,54.5 Z"/></g>
<g><path style="opacity:1" fill="#309bd5" d="M 157.5,59.5 C 157.5,61.8333 157.5,64.1667 157.5,66.5C 147.5,66.5 137.5,66.5 127.5,66.5C 127.784,68.4147 127.451,70.0813 126.5,71.5C 126.5,68.1667 126.5,64.8333 126.5,61.5C 136.446,59.5247 146.779,58.8581 157.5,59.5 Z"/></g>
<g><path style="opacity:1" fill="#3d8bd8" d="M 108.5,50.5 C 111.614,50.5548 113.948,51.8881 115.5,54.5C 106.922,61.5737 98.7549,69.2404 91,77.5C 90.7003,79.0657 91.2003,80.399 92.5,81.5C 89.0789,80.0274 87.0789,77.3607 86.5,73.5C 86.3505,72.448 86.5172,71.448 87,70.5C 92.8013,63.6975 98.9679,57.1975 105.5,51C 106.448,50.5172 107.448,50.3505 108.5,50.5 Z"/></g>
<g><path style="opacity:1" fill="#5365de" d="M 120.5,64.5 C 113.631,69.8597 107.131,75.8597 101,82.5C 100.517,83.448 100.351,84.448 100.5,85.5C 98.597,85.2041 96.9303,84.5375 95.5,83.5C 102.407,75.0884 109.907,67.0884 118,59.5C 119.12,61.0302 119.954,62.6968 120.5,64.5 Z"/></g>
<g><path style="opacity:1" fill="#645ae2" d="M 120.5,64.5 C 120.5,67.1667 120.5,69.8333 120.5,72.5C 117.159,81.843 110.492,86.1763 100.5,85.5C 100.351,84.448 100.517,83.448 101,82.5C 107.131,75.8597 113.631,69.8597 120.5,64.5 Z"/></g>
<g><path style="opacity:0.808" fill="#c59ef5" d="M 203.5,67.5 C 204.906,67.9731 205.573,68.9731 205.5,70.5C 204.094,70.0269 203.427,69.0269 203.5,67.5 Z"/></g>
<g><path style="opacity:1" fill="#318dd6" d="M 157.5,58.5 C 158.164,60.9779 158.497,63.6445 158.5,66.5C 158.621,71.0927 157.954,75.4261 156.5,79.5C 145.854,80.3125 135.187,80.6458 124.5,80.5C 125.167,77.5 125.833,74.5 126.5,71.5C 127.451,70.0813 127.784,68.4147 127.5,66.5C 137.5,66.5 147.5,66.5 157.5,66.5C 157.5,64.1667 157.5,61.8333 157.5,59.5C 157.5,59.1667 157.5,58.8333 157.5,58.5 Z"/></g>
<g><path style="opacity:0.471" fill="#c8aaf5" d="M 209.5,75.5 C 210.906,75.9731 211.573,76.9731 211.5,78.5C 210.094,78.0269 209.427,77.0269 209.5,75.5 Z"/></g>
<g><path style="opacity:1" fill="#4084d9" d="M 156.5,79.5 C 156.5,80.8333 156.5,82.1667 156.5,83.5C 155.028,85.706 154.695,88.0393 155.5,90.5C 154.833,90.8333 154.167,91.1667 153.5,91.5C 148.04,90.1709 142.207,89.5042 136,89.5C 130.167,89.6667 124.333,89.8333 118.5,90C 117.529,91.4813 116.196,92.3146 114.5,92.5C 118.24,88.7672 121.573,84.7672 124.5,80.5C 135.187,80.6458 145.854,80.3125 156.5,79.5 Z"/></g>
<g><path style="opacity:1" fill="#6f3ee4" d="M 213.5,81.5 C 216.014,84.3645 217.68,87.6978 218.5,91.5C 216.342,93.22 213.675,94.0533 210.5,94C 194.503,94.4999 178.503,94.6666 162.5,94.5C 161.395,93.3995 160.062,92.7329 158.5,92.5C 158.027,91.0937 157.027,90.427 155.5,90.5C 154.695,88.0393 155.028,85.706 156.5,83.5C 167.146,83.9498 177.98,83.9498 189,83.5C 197.528,83.4979 205.695,82.8312 213.5,81.5 Z"/></g>
<g><path style="opacity:1" fill="#477adb" d="M 153.5,91.5 C 152.258,95.6553 150.258,99.322 147.5,102.5C 139.528,101.169 131.194,100.502 122.5,100.5C 113.758,100.514 105.091,100.847 96.5,101.5C 97.0998,100.1 98.0998,99.1001 99.5,98.5C 104.808,97.286 109.808,95.286 114.5,92.5C 116.196,92.3146 117.529,91.4813 118.5,90C 124.333,89.8333 130.167,89.6667 136,89.5C 142.207,89.5042 148.04,90.1709 153.5,91.5 Z"/></g>
<g><path style="opacity:0.506" fill="#c5aff5" d="M 155.5,90.5 C 157.027,90.427 158.027,91.0937 158.5,92.5C 156.973,92.573 155.973,91.9063 155.5,90.5 Z"/></g>
<g><path style="opacity:0.839" fill="#c3abf4" d="M 158.5,92.5 C 160.062,92.7329 161.395,93.3995 162.5,94.5C 162.833,95.1667 163.167,95.8333 163.5,96.5C 161.251,95.9202 159.585,94.5869 158.5,92.5 Z"/></g>
<g><path style="opacity:1" fill="#6a45e3" d="M 218.5,91.5 C 220.293,93.4261 221.293,95.7594 221.5,98.5C 221.833,101.167 222.167,103.833 222.5,106.5C 205.488,106.372 188.488,106.705 171.5,107.5C 168.833,103.833 166.167,100.167 163.5,96.5C 163.167,95.8333 162.833,95.1667 162.5,94.5C 178.503,94.6666 194.503,94.4999 210.5,94C 213.675,94.0533 216.342,93.22 218.5,91.5 Z"/></g>
<g><path style="opacity:1" fill="#4f6cdd" d="M 147.5,102.5 C 145.118,107.248 141.784,111.248 137.5,114.5C 131.202,113.17 124.535,112.503 117.5,112.5C 110.423,112.517 103.423,112.851 96.5,113.5C 96.5,109.5 96.5,105.5 96.5,101.5C 105.091,100.847 113.758,100.514 122.5,100.5C 131.194,100.502 139.528,101.169 147.5,102.5 Z"/></g>
<g><path style="opacity:1" fill="#634fe2" d="M 221.5,98.5 C 223.816,102.794 225.15,107.46 225.5,112.5C 225.5,114.833 225.5,117.167 225.5,119.5C 213.825,119.515 202.159,119.848 190.5,120.5C 186.5,120.167 182.5,119.833 178.5,119.5C 178.185,117.517 177.185,116.184 175.5,115.5C 174.167,112.833 172.833,110.167 171.5,107.5C 188.488,106.705 205.488,106.372 222.5,106.5C 222.167,103.833 221.833,101.167 221.5,98.5 Z"/></g>
<g><path style="opacity:0.441" fill="#b1baf0" d="M 99.5,98.5 C 98.0998,99.1001 97.0998,100.1 96.5,101.5C 96.5,105.5 96.5,109.5 96.5,113.5C 96.5,118.833 96.5,124.167 96.5,129.5C 95.5058,119.347 95.1724,109.014 95.5,98.5C 96.8333,98.5 98.1667,98.5 99.5,98.5 Z"/></g>
<g><path style="opacity:1" fill="#6164e1" d="M 137.5,114.5 C 125.65,124.891 111.983,129.891 96.5,129.5C 96.5,124.167 96.5,118.833 96.5,113.5C 103.423,112.851 110.423,112.517 117.5,112.5C 124.535,112.503 131.202,113.17 137.5,114.5 Z"/></g>
<g><path style="opacity:1" fill="#585adf" d="M 225.5,112.5 C 226.451,113.919 226.784,115.585 226.5,117.5C 226.5,124.167 226.5,130.833 226.5,137.5C 210.833,137.5 195.167,137.5 179.5,137.5C 179.802,134.941 179.468,132.607 178.5,130.5C 177.822,125.429 176.822,120.429 175.5,115.5C 177.185,116.184 178.185,117.517 178.5,119.5C 182.5,119.833 186.5,120.167 190.5,120.5C 202.159,119.848 213.825,119.515 225.5,119.5C 225.5,117.167 225.5,114.833 225.5,112.5 Z"/></g>
<g><path style="opacity:0.994" fill="#4c4c4c" d="M 49.5,136.5 C 51.1667,136.5 52.8333,136.5 54.5,136.5C 54.3345,140.514 54.5012,144.514 55,148.5C 56.6667,149.833 58.3333,149.833 60,148.5C 60.4988,144.514 60.6655,140.514 60.5,136.5C 62.1667,136.5 63.8333,136.5 65.5,136.5C 65.6657,140.846 65.499,145.179 65,149.5C 63.56,152.666 61.06,154.333 57.5,154.5C 53.94,154.333 51.44,152.666 50,149.5C 49.501,145.179 49.3343,140.846 49.5,136.5 Z"/></g>
<g><path style="opacity:0.992" fill="#4b4b4b" d="M 122.5,136.5 C 126.167,136.5 129.833,136.5 133.5,136.5C 133.666,141.179 133.499,145.845 133,150.5C 129.029,155.62 124.863,155.787 120.5,151C 121.701,150.097 122.535,148.931 123,147.5C 124.396,149.527 126.062,149.86 128,148.5C 128.497,145.854 128.664,143.187 128.5,140.5C 126.5,140.5 124.5,140.5 122.5,140.5C 122.5,139.167 122.5,137.833 122.5,136.5 Z"/></g>
<g><path style="opacity:0.997" fill="#353535" d="M 40.5,149.5 C 39.4324,148.566 38.099,148.232 36.5,148.5C 36.5,150.167 36.5,151.833 36.5,153.5C 35.1667,153.5 33.8333,153.5 32.5,153.5C 32.5,147.833 32.5,142.167 32.5,136.5C 36.5138,136.334 40.5138,136.501 44.5,137C 48.5,140.667 48.5,144.333 44.5,148C 48.9376,152.719 47.9376,154.219 41.5,152.5C 40.8728,151.583 40.5394,150.583 40.5,149.5 Z M 41.5,140.5 C 42.6857,141.961 42.6857,143.295 41.5,144.5C 40.1667,144.5 38.8333,144.5 37.5,144.5C 37.5,143.167 37.5,141.833 37.5,140.5C 38.8333,140.5 40.1667,140.5 41.5,140.5 Z"/></g>
<g><path style="opacity:0.992" fill="#383838" d="M 68.5,136.5 C 72.5138,136.334 76.5138,136.501 80.5,137C 84.082,139.017 84.4153,141.517 81.5,144.5C 84.113,147.371 84.113,150.205 81.5,153C 77.1794,153.499 72.8461,153.666 68.5,153.5C 68.5,147.833 68.5,142.167 68.5,136.5 Z M 77.5,140.5 C 77.5,141.167 77.5,141.833 77.5,142.5C 72.1667,141.833 72.1667,141.167 77.5,140.5 Z M 73.5,146.5 C 74.8734,146.343 76.2068,146.51 77.5,147C 78.7736,147.977 78.7736,148.811 77.5,149.5C 76.1667,149.5 74.8333,149.5 73.5,149.5C 73.5,148.5 73.5,147.5 73.5,146.5 Z"/></g>
<g><path style="opacity:0.995" fill="#4d4d4d" d="M 92.5,135.5 C 102.447,137.06 105.28,142.394 101,151.5C 96.621,155.184 92.121,155.351 87.5,152C 82.372,144.331 84.0387,138.831 92.5,135.5 Z M 91.5,140.5 C 97.845,140.542 99.5117,143.209 96.5,148.5C 89.4089,149.531 87.7422,146.864 91.5,140.5 Z"/></g>
<g><path style="opacity:0.996" fill="#474747" d="M 104.5,136.5 C 108.846,136.334 113.179,136.501 117.5,137C 121.434,140.793 121.434,144.626 117.5,148.5C 118.624,149.914 119.624,151.414 120.5,153C 119.5,153.167 118.5,153.333 117.5,153.5C 115.169,151.521 112.503,150.188 109.5,149.5C 109.5,150.833 109.5,152.167 109.5,153.5C 107.833,153.5 106.167,153.5 104.5,153.5C 104.5,147.833 104.5,142.167 104.5,136.5 Z M 115.5,143.5 C 113.621,144.341 111.621,144.675 109.5,144.5C 109.5,143.167 109.5,141.833 109.5,140.5C 111.199,140.34 112.866,140.506 114.5,141C 115.252,141.671 115.586,142.504 115.5,143.5 Z"/></g>
<g><path style="opacity:0.086" fill="#e9e9e9" d="M 77.5,140.5 C 72.1667,141.167 72.1667,141.833 77.5,142.5C 76.0813,143.451 74.4147,143.784 72.5,143.5C 72.5,142.167 72.5,140.833 72.5,139.5C 74.4147,139.216 76.0813,139.549 77.5,140.5 Z"/></g>
<g><path style="opacity:1" fill="#5a66df" d="M 226.5,117.5 C 228.386,125.985 228.72,134.651 227.5,143.5C 226.317,144.504 224.984,145.338 223.5,146C 208.17,146.5 192.837,146.667 177.5,146.5C 177.5,145.5 177.5,144.5 177.5,143.5C 177.927,139.176 178.261,134.842 178.5,130.5C 179.468,132.607 179.802,134.941 179.5,137.5C 195.167,137.5 210.833,137.5 226.5,137.5C 226.5,130.833 226.5,124.167 226.5,117.5 Z"/></g>
<g><path style="opacity:0.075" fill="#e9e9e9" d="M 41.5,140.5 C 40.1667,140.5 38.8333,140.5 37.5,140.5C 37.5,141.833 37.5,143.167 37.5,144.5C 38.8333,144.5 40.1667,144.5 41.5,144.5C 40.0813,145.451 38.4147,145.784 36.5,145.5C 36.5,143.5 36.5,141.5 36.5,139.5C 38.4147,139.216 40.0813,139.549 41.5,140.5 Z"/></g>
<g><path style="opacity:0.033" fill="#e0e0e0" d="M 115.5,143.5 C 115.03,144.693 114.03,145.36 112.5,145.5C 111.274,145.48 110.274,145.147 109.5,144.5C 111.621,144.675 113.621,144.341 115.5,143.5 Z"/></g>
<g><path style="opacity:0.974" fill="#5d5d5d" d="M 140.5,136.5 C 151.053,134.668 156.219,139.001 156,149.5C 152.874,151.991 150.374,154.491 148.5,157C 138.667,157.833 134.167,153.333 135,143.5C 135.967,140.379 137.8,138.046 140.5,136.5 Z M 152.5,142.5 C 154.106,145.525 153.772,148.192 151.5,150.5C 151.194,147.615 151.527,144.948 152.5,142.5 Z M 150.5,140.5 C 150.5,140.833 150.5,141.167 150.5,141.5C 144.372,138.817 140.372,140.65 138.5,147C 139.868,152.258 143.034,153.758 148,151.5C 150.096,152.715 149.929,153.549 147.5,154C 141.752,155.126 138.419,152.792 137.5,147C 139.177,139.73 143.51,137.563 150.5,140.5 Z M 143.5,144.5 C 145.346,144.222 146.68,144.889 147.5,146.5C 146.923,148.55 145.59,149.55 143.5,149.5C 143.5,147.833 143.5,146.167 143.5,144.5 Z"/></g>
<g><path style="opacity:0.022" fill="#fcfcfc" d="M 150.5,140.5 C 151.5,140.833 152.167,141.5 152.5,142.5C 151.527,144.948 151.194,147.615 151.5,150.5C 150.523,147.713 150.19,144.713 150.5,141.5C 150.5,141.167 150.5,140.833 150.5,140.5 Z"/></g>
<g><path style="opacity:0.075" fill="#f0f0f0" d="M 40.5,149.5 C 39.5,149.5 38.5,149.5 37.5,149.5C 37.7678,151.099 37.4345,152.432 36.5,153.5C 36.5,151.833 36.5,150.167 36.5,148.5C 38.099,148.232 39.4324,148.566 40.5,149.5 Z"/></g>
<g><path style="opacity:0.101" fill="#e5e5e5" d="M 73.5,146.5 C 73.5,147.5 73.5,148.5 73.5,149.5C 74.8333,149.5 76.1667,149.5 77.5,149.5C 76.0813,150.451 74.4147,150.784 72.5,150.5C 72.2322,148.901 72.5655,147.568 73.5,146.5 Z"/></g>
<g><path style="opacity:1" fill="#4e6add" d="M 177.5,143.5 C 177.5,144.5 177.5,145.5 177.5,146.5C 192.837,146.667 208.17,146.5 223.5,146C 224.984,145.338 226.317,144.504 227.5,143.5C 227.675,145.621 227.341,147.621 226.5,149.5C 224.914,151.081 223.914,153.081 223.5,155.5C 215.167,155.833 206.833,156.167 198.5,156.5C 189.806,156.498 181.472,155.831 173.5,154.5C 174.859,150.747 176.193,147.081 177.5,143.5 Z"/></g>
<g><path style="opacity:0.369" fill="#b1b1b1" d="M 21.5,160.5 C 23.4672,160.261 25.3005,160.594 27,161.5C 27.7965,164.721 27.2965,167.721 25.5,170.5C 20.6263,168.62 19.293,165.286 21.5,160.5 Z M 22.5,162.5 C 23.5,162.5 24.5,162.5 25.5,162.5C 25.5,164.167 25.5,165.833 25.5,167.5C 22.1506,167.127 21.1506,165.46 22.5,162.5 Z"/></g>
<g><path style="opacity:0.437" fill="#b6b6b6" d="M 112.5,160.5 C 114.467,160.261 116.301,160.594 118,161.5C 117.698,163.974 117.532,166.308 117.5,168.5C 116.667,167.5 115.833,166.5 115,165.5C 114.751,166.624 114.251,167.624 113.5,168.5C 112.52,165.914 112.187,163.247 112.5,160.5 Z M 114.5,162.5 C 116.337,162.639 116.67,163.306 115.5,164.5C 114.702,164.043 114.369,163.376 114.5,162.5 Z"/></g>
<g><path style="opacity:0.043" fill="#dadada" d="M 125.5,160.5 C 126.748,161.334 127.415,162.667 127.5,164.5C 127.167,165.833 126.833,167.167 126.5,168.5C 125.52,165.914 125.187,163.247 125.5,160.5 Z"/></g>
<g><path style="opacity:0.495" fill="#bababa" d="M 99.5,160.5 C 101.604,160.201 103.604,160.534 105.5,161.5C 104.119,163.635 103.119,165.968 102.5,168.5C 101.68,165.699 100.68,163.032 99.5,160.5 Z"/></g>
<g><path style="opacity:0.051" fill="#e1e1e1" d="M 89.5,162.5 C 88.4865,163.659 88.1532,165.659 88.5,168.5C 87.5269,166.052 87.1936,163.385 87.5,160.5C 89.288,160.215 90.9547,160.548 92.5,161.5C 91.675,162.386 90.675,162.719 89.5,162.5 Z"/></g>
<g><path style="opacity:0.392" fill="#bfbfbf" d="M 149.5,160.5 C 153.971,160.672 154.304,161.506 150.5,163C 152.677,164.186 153.677,166.019 153.5,168.5C 151.801,168.66 150.134,168.494 148.5,168C 149.624,167.751 150.624,167.251 151.5,166.5C 148.61,165.163 147.943,163.163 149.5,160.5 Z"/></g>
<g><path style="opacity:1" fill="#4872db" d="M 226.5,149.5 C 225.924,154.809 224.591,159.809 222.5,164.5C 220.461,165.911 219.461,167.911 219.5,170.5C 200.152,170.526 180.819,170.693 161.5,171C 163.464,169.549 164.797,167.716 165.5,165.5C 168.423,161.973 171.09,158.306 173.5,154.5C 181.472,155.831 189.806,156.498 198.5,156.5C 206.833,156.167 215.167,155.833 223.5,155.5C 223.914,153.081 224.914,151.081 226.5,149.5 Z"/></g>
<g><path style="opacity:0.353" fill="#b4b4b4" d="M 9.5,160.5 C 11.1903,162.504 12.5236,164.837 13.5,167.5C 13.1667,167.833 12.8333,168.167 12.5,168.5C 10.8333,165.833 9.16667,165.833 7.5,168.5C 7.06685,165.753 7.73352,163.087 9.5,160.5 Z"/></g>
<g><path style="opacity:0.417" fill="#b0b0b0" d="M 51.5,160.5 C 53.284,161.574 54.4506,163.24 55,165.5C 55.7494,166.635 55.5827,167.635 54.5,168.5C 52.8333,165.833 51.1667,165.833 49.5,168.5C 49.1667,168.167 48.8333,167.833 48.5,167.5C 49.7019,165.22 50.7019,162.886 51.5,160.5 Z"/></g>
<g><path style="opacity:0.667" fill="#bababa" d="M 71.5,160.5 C 72.5,160.5 73.5,160.5 74.5,160.5C 75.5,167.167 76.5,167.167 77.5,160.5C 78.5,160.5 79.5,160.5 80.5,160.5C 80.8134,163.247 80.48,165.914 79.5,168.5C 78.2624,164.689 77.5958,164.689 77.5,168.5C 76.5,168.5 75.5,168.5 74.5,168.5C 74.4042,164.689 73.7376,164.689 72.5,168.5C 71.52,165.914 71.1866,163.247 71.5,160.5 Z"/></g>
<g><path style="opacity:0.435" fill="#b4b4b4" d="M 136.5,160.5 C 138.288,160.215 139.955,160.548 141.5,161.5C 134.956,163.592 134.956,165.758 141.5,168C 139.597,169.828 137.764,169.661 136,167.5C 135.297,165.071 135.463,162.738 136.5,160.5 Z"/></g>
<g><path style="opacity:0.639" fill="#9a9a9a" d="M 35.5,160.5 C 36.2161,162.556 36.8828,164.723 37.5,167C 37.8333,167.167 38.1667,167.333 38.5,167.5C 41.1852,158.107 41.8519,158.273 40.5,168C 38.8659,168.494 37.1992,168.66 35.5,168.5C 35.5,165.833 35.5,163.167 35.5,160.5 Z"/></g>
<g><path style="opacity:0.708" fill="#888888" d="M 89.5,162.5 C 90.3984,163.158 91.3984,163.824 92.5,164.5C 88.6221,165.885 88.6221,167.051 92.5,168C 91.2068,168.49 89.8734,168.657 88.5,168.5C 88.1532,165.659 88.4865,163.659 89.5,162.5 Z"/></g>
<g><path style="opacity:1" fill="#477ddb" d="M 222.5,164.5 C 220.795,170.956 218.128,176.956 214.5,182.5C 186.834,183.104 159.167,183.27 131.5,183C 132.737,182.768 133.737,182.268 134.5,181.5C 146.649,179.593 156.983,174.259 165.5,165.5C 164.797,167.716 163.464,169.549 161.5,171C 180.819,170.693 200.152,170.526 219.5,170.5C 219.461,167.911 220.461,165.911 222.5,164.5 Z"/></g>
<g><path style="opacity:0.992" fill="#cda6f6" d="M 116.5,182.5 C 116.167,183.167 115.833,183.833 115.5,184.5C 114.287,183.503 114.454,182.503 116,181.5C 116.399,181.728 116.565,182.062 116.5,182.5 Z"/></g>
<g><path style="opacity:1" fill="#3b81d8" d="M 134.5,181.5 C 133.737,182.268 132.737,182.768 131.5,183C 159.167,183.27 186.834,183.104 214.5,182.5C 212.646,186.221 210.313,189.554 207.5,192.5C 181.511,193.366 155.511,193.7 129.5,193.5C 129.5,189.833 129.5,186.167 129.5,182.5C 130.919,181.549 132.585,181.216 134.5,181.5 Z"/></g>
<g><path style="opacity:1" fill="#8054e7" d="M 107.5,182.5 C 107.5,184.167 107.5,185.833 107.5,187.5C 105.093,188.794 102.926,190.461 101,192.5C 100.392,190.934 99.5585,189.6 98.5,188.5C 98.1924,186.076 98.5258,183.743 99.5,181.5C 102.253,181.534 104.92,181.867 107.5,182.5 Z"/></g>
<g><path style="opacity:1" fill="#714ce5" d="M 124.5,182.5 C 124.5,184.167 124.5,185.833 124.5,187.5C 123.577,190.423 121.577,192.423 118.5,193.5C 117.787,191.565 116.787,191.232 115.5,192.5C 115.5,191.833 115.5,191.167 115.5,190.5C 115.5,188.5 115.5,186.5 115.5,184.5C 115.833,183.833 116.167,183.167 116.5,182.5C 119.31,181.975 121.977,181.975 124.5,182.5 Z"/></g>
<g><path style="opacity:1" fill="#585bdf" d="M 107.5,187.5 C 107.5,190.833 107.5,194.167 107.5,197.5C 105.031,198.569 102.698,199.902 100.5,201.5C 99.8165,201.137 99.1499,200.804 98.5,200.5C 98.5,196.5 98.5,192.5 98.5,188.5C 99.5585,189.6 100.392,190.934 101,192.5C 102.926,190.461 105.093,188.794 107.5,187.5 Z"/></g>
<g><path style="opacity:1" fill="#575cdf" d="M 124.5,187.5 C 124.5,190.167 124.5,192.833 124.5,195.5C 122.585,198.961 119.585,200.628 115.5,200.5C 115.5,197.833 115.5,195.167 115.5,192.5C 116.787,191.232 117.787,191.565 118.5,193.5C 121.577,192.423 123.577,190.423 124.5,187.5 Z"/></g>
<g><path style="opacity:1" fill="#3588d7" d="M 207.5,192.5 C 205.547,196.12 202.881,199.12 199.5,201.5C 176.171,202.081 152.838,202.415 129.5,202.5C 129.5,199.5 129.5,196.5 129.5,193.5C 155.511,193.7 181.511,193.366 207.5,192.5 Z"/></g>
<g><path style="opacity:1" fill="#496cdc" d="M 107.5,197.5 C 107.5,199.833 107.5,202.167 107.5,204.5C 105.027,204.799 102.86,205.799 101,207.5C 100.098,207.257 99.2646,206.923 98.5,206.5C 98.5,204.5 98.5,202.5 98.5,200.5C 99.1499,200.804 99.8165,201.137 100.5,201.5C 102.698,199.902 105.031,198.569 107.5,197.5 Z"/></g>
<g><path style="opacity:0.999" fill="#338dd6" d="M 199.5,201.5 C 196.789,205.212 193.456,208.212 189.5,210.5C 169.827,210.535 150.16,210.869 130.5,211.5C 130.737,212.791 130.404,213.791 129.5,214.5C 129.5,210.5 129.5,206.5 129.5,202.5C 152.838,202.415 176.171,202.081 199.5,201.5 Z"/></g>
<g><path style="opacity:1" fill="#3294d6" d="M 189.5,210.5 C 185.292,214.685 180.292,217.685 174.5,219.5C 159.818,219.833 145.152,219.499 130.5,218.5C 129.754,217.264 129.421,215.93 129.5,214.5C 130.404,213.791 130.737,212.791 130.5,211.5C 150.16,210.869 169.827,210.535 189.5,210.5 Z"/></g>
<g><path style="opacity:1" fill="#4484da" d="M 107.5,182.5 C 108.492,190.316 108.826,198.316 108.5,206.5C 107.246,211.493 103.913,214.159 98.5,214.5C 98.5,211.833 98.5,209.167 98.5,206.5C 99.2646,206.923 100.098,207.257 101,207.5C 102.86,205.799 105.027,204.799 107.5,204.5C 107.5,202.167 107.5,199.833 107.5,197.5C 107.5,194.167 107.5,190.833 107.5,187.5C 107.5,185.833 107.5,184.167 107.5,182.5 Z"/></g>
<g><path style="opacity:1" fill="#2a9dd4" d="M 108.5,206.5 C 108.5,211.167 108.5,215.833 108.5,220.5C 105.47,223.014 102.137,225.014 98.5,226.5C 98.5,222.5 98.5,218.5 98.5,214.5C 103.913,214.159 107.246,211.493 108.5,206.5 Z"/></g>
<g><path style="opacity:1" fill="#5ca8db" d="M 129.5,182.5 C 129.5,186.167 129.5,189.833 129.5,193.5C 129.5,196.5 129.5,199.5 129.5,202.5C 129.5,206.5 129.5,210.5 129.5,214.5C 129.421,215.93 129.754,217.264 130.5,218.5C 145.152,219.499 159.818,219.833 174.5,219.5C 160.7,227.534 145.7,231.367 129.5,231C 128.17,214.736 128.17,198.569 129.5,182.5 Z"/></g>
<g><path style="opacity:1" fill="#81c4e0" d="M 124.5,182.5 C 125.83,198.569 125.83,214.736 124.5,231C 121.24,231.784 118.073,231.617 115,230.5C 114.173,216.994 114.34,203.66 115.5,190.5C 115.5,191.167 115.5,191.833 115.5,192.5C 115.5,195.167 115.5,197.833 115.5,200.5C 115.5,203.5 115.5,206.5 115.5,209.5C 115.095,213.048 115.595,216.381 117,219.5C 119.034,217.968 121.201,216.635 123.5,215.5C 124.484,212.572 124.817,209.572 124.5,206.5C 124.5,202.833 124.5,199.167 124.5,195.5C 124.5,192.833 124.5,190.167 124.5,187.5C 124.5,185.833 124.5,184.167 124.5,182.5 Z"/></g>
<g><path style="opacity:1" fill="#3188d7" d="M 124.5,206.5 C 124.817,209.572 124.484,212.572 123.5,215.5C 121.201,216.635 119.034,217.968 117,219.5C 115.595,216.381 115.095,213.048 115.5,209.5C 116.15,209.804 116.817,210.137 117.5,210.5C 119.698,208.902 122.031,207.569 124.5,206.5 Z"/></g>
<g><path style="opacity:0.998" fill="#4373da" d="M 124.5,195.5 C 124.5,199.167 124.5,202.833 124.5,206.5C 122.031,207.569 119.698,208.902 117.5,210.5C 116.817,210.137 116.15,209.804 115.5,209.5C 115.5,206.5 115.5,203.5 115.5,200.5C 119.585,200.628 122.585,198.961 124.5,195.5 Z"/></g>
<g><path style="opacity:0.998" fill="#4ebcd5" d="M 108.5,220.5 C 108.5,224.167 108.5,227.833 108.5,231.5C 105.167,231.5 101.833,231.5 98.5,231.5C 98.5,229.833 98.5,228.167 98.5,226.5C 102.137,225.014 105.47,223.014 108.5,220.5 Z"/></g>
</svg>
